# xmcd
#
# Track frame offsets:
#	150
#	17794
#	37350
#	55094
#	74762
#	97474
#	117212
#	135894
#	158315
#	179748
#	202161
#	219541
#	240569
#
# Disc length: 3469 seconds
#
# Revision: 0
# Processed by: cddbd v1.5.1PL0 Copyright (c) Steve Scherf et al.
# Submitted via: audiograbber 1.83.01
#
DISCID=c50d8b0d
DTITLE=Manolo García - Para que no se duerman mis sentidos
DYEAR=2004
DGENRE=
TTITLE0=Para que no se duerman mis sentidos
TTITLE1=Malva
TTITLE2=Niña Candela
TTITLE3=Solo un poco
TTITLE4=En una playa en calma
TTITLE5=Vive en mi un recuerdo
TTITLE6=Pájaros de barro
TTITLE7=Zapatero
TTITLE8=Carbón y ramas secas
TTITLE9=Prefiero el trapecio
TTITLE10=A San Fernando, un ratito a pie y otro caminando
TTITLE11=Como quien da un refresco
TTITLE12=Se dejaba llevar
EXTD=
EXTT0=
EXTT1=
EXTT2=
EXTT3=
EXTT4=
EXTT5=
EXTT6=
EXTT7=
EXTT8=
EXTT9=
EXTT10=
EXTT11=
EXTT12=
PLAYORDER=
